<?xml version="1.0" encoding="UTF-8"?>
<svg width="160px" height="36px" viewBox="0 0 160 36" version="1.1" xmlns="http://www.w3.org/2000/svg" xmlns:xlink="http://www.w3.org/1999/xlink">
    <title>Group 2</title>
    <defs>
        <linearGradient x1="0%" y1="50.0000002%" x2="99.999%" y2="50.0000002%" id="linearGradient-1">
            <stop stop-color="#E7380D" offset="0%"></stop>
            <stop stop-color="#E7380D" offset="2%"></stop>
            <stop stop-color="#E8410C" offset="7.511782%"></stop>
            <stop stop-color="#EC590A" offset="16.51%"></stop>
            <stop stop-color="#F18107" offset="27.86%"></stop>
            <stop stop-color="#F9B703" offset="41%"></stop>
            <stop stop-color="#FFE100" offset="50%"></stop>
            <stop stop-color="#F9B703" offset="59%"></stop>
            <stop stop-color="#F18107" offset="72.14%"></stop>
            <stop stop-color="#EC590A" offset="83.49%"></stop>
            <stop stop-color="#E8410C" offset="92.49%"></stop>
            <stop stop-color="#E7380D" offset="98%"></stop>
            <stop stop-color="#E7380D" offset="100%"></stop>
        </linearGradient>
        <linearGradient x1="133.98642%" y1="50.0253086%" x2="2.12962963%" y2="50.0253086%" id="linearGradient-2">
            <stop stop-color="#FFDD00" offset="20%"></stop>
            <stop stop-color="#FDCA02" offset="28.24%"></stop>
            <stop stop-color="#F79A05" offset="44.88%"></stop>
            <stop stop-color="#EE4E0C" offset="68.13%"></stop>
            <stop stop-color="#E50012" offset="90%"></stop>
        </linearGradient>
        <linearGradient x1="-34.162963%" y1="49.9969136%" x2="97.6962963%" y2="49.9969136%" id="linearGradient-3">
            <stop stop-color="#FFDD00" offset="20%"></stop>
            <stop stop-color="#FDCA02" offset="28.24%"></stop>
            <stop stop-color="#F79A05" offset="44.88%"></stop>
            <stop stop-color="#EE4E0C" offset="68.13%"></stop>
            <stop stop-color="#E50012" offset="90%"></stop>
        </linearGradient>
    </defs>
    <g id="Page-1" stroke="none" stroke-width="1" fill="none" fill-rule="evenodd">
        <g id="A5" transform="translate(-110.000000, -120.000000)">
            <g id="Group-2" transform="translate(110.000000, 120.000000)">
                <rect id="Rectangle" fill="#FFFFFF" x="0" y="0" width="160" height="36"></rect>
                <g id="Group" transform="translate(6.000000, 6.000000)" fill-rule="nonzero">
                    <path d="M31.6000278,18.654569 L32.4236391,16.1017498 L36.8081582,16.1017498 L37.5752471,18.654569 L40.2721704,18.654569 L36.0572184,6.23590408 L33.2472505,6.23590408 L29,18.654569 L31.6000278,18.654569 Z M36.1137408,13.9617628 L33.0938327,13.9617628 L34.6280106,9.07517822 L36.1137408,13.9617628 Z M44.2691076,18.654569 L44.2691076,14.5009721 L45.4560768,13.2287751 L49.1300292,18.654569 L52.327579,18.654569 L47.2001949,11.3499676 L52.0772658,6.23590408 L48.8635668,6.23590408 L44.2691076,11.3499676 L44.2691076,6.23590408 L41.8224976,6.23590408 L41.8224976,18.654569 L44.2691076,18.654569 Z M55.4847557,18.654569 L56.308367,16.1017498 L60.692886,16.1017498 L61.4599749,18.654569 L64.1568982,18.654569 L59.9419463,6.23590408 L57.1319783,6.23590408 L52.8847278,18.654569 L55.4847557,18.654569 Z M59.9984686,13.9617628 L56.9785605,13.9617628 L58.5127384,9.07517822 L59.9984686,13.9617628 Z M67.9438953,18.654569 L67.9438953,6.23590408 L65.4730614,6.23590408 L65.4730614,18.654569 L67.9438953,18.654569 Z M75.6955311,18.654569 C76.3038192,18.654569 76.8676969,18.5984014 77.3871641,18.4860661 C77.9066314,18.3737308 78.3574644,18.1659106 78.7396631,17.8626053 C79.0787972,17.5986174 79.3614089,17.2728451 79.5874983,16.8852884 C79.9427816,16.301145 80.1204232,15.6411752 80.1204232,14.9053791 C80.1204232,14.1920501 79.9656597,13.5854396 79.6561325,13.0855476 C79.3466054,12.5856556 78.8876978,12.220566 78.2794097,11.9902787 C78.6777577,11.7768417 78.9792102,11.5409376 79.1837672,11.2825664 C79.5498167,10.8219918 79.7328414,10.2125729 79.7328414,9.45430979 C79.7328414,8.71851372 79.5498167,8.08662778 79.1837672,7.55865198 C78.5754791,6.6992871 77.5419277,6.25837114 76.0831129,6.23590408 L76.0831129,6.23590408 L70.3016845,6.23590408 L70.3016845,18.654569 L75.6955311,18.654569 Z M75.5986357,11.1309138 L72.675623,11.1309138 L72.675623,8.39274141 L75.2918001,8.39274141 C75.8677897,8.39274141 76.3415008,8.4573342 76.7129333,8.58651977 C77.1435797,8.77187297 77.358903,9.15381292 77.358903,9.7323396 C77.358903,10.2546986 77.1960648,10.6183841 76.8703884,10.823396 C76.5447121,11.0284079 76.1207945,11.1309138 75.5986357,11.1309138 L75.5986357,11.1309138 Z M75.5986357,16.4977317 L72.675623,16.4977317 L72.675623,13.1866494 L75.6390088,13.1866494 C76.1557845,13.1922661 76.556824,13.2624757 76.8421272,13.397278 C77.3535199,13.6387989 77.6092162,14.0825232 77.6092162,14.7284511 C77.6092162,15.492331 77.3454453,16.0090732 76.8179034,16.2786779 C76.527217,16.4247138 76.1207945,16.4977317 75.5986357,16.4977317 L75.5986357,16.4977317 Z M86.9919254,18.9747246 C89.0536452,18.9747246 90.4505546,18.3007129 91.1826535,16.9526896 C91.5756184,16.2168935 91.7721008,15.1890257 91.7721008,13.8690862 L91.7721008,13.8690862 L91.7721008,6.23590408 L89.2447445,6.23590408 L89.2447445,13.8690862 C89.2447445,14.7228343 89.1478491,15.3462951 88.9540582,15.7394686 C88.6526057,16.4359473 87.9985614,16.7841866 86.9919254,16.7841866 C85.9799063,16.7841866 85.3231704,16.4359473 85.0217179,15.7394686 C84.827927,15.3462951 84.7310316,14.7228343 84.7310316,13.8690862 L84.7310316,13.8690862 L84.7310316,6.23590408 L82.2036753,6.23590408 L82.2036753,13.8690862 C82.2036753,15.1890257 82.4001578,16.2168935 82.7931227,16.9526896 C83.5306047,18.3007129 84.9302056,18.9747246 86.9919254,18.9747246 Z M103.730614,19 C105.114066,19 106.24855,18.5759343 107.134067,17.727803 C108.019583,16.8796716 108.570003,15.7787859 108.785326,14.4251458 L108.785326,14.4251458 L106.322567,14.4251458 C106.155692,15.0654569 105.945752,15.5456902 105.692747,15.8658458 C105.235185,16.4612227 104.570374,16.7589112 103.698315,16.7589112 C102.847789,16.7589112 102.146643,16.412076 101.594877,15.7184057 C101.043111,15.0247354 100.767228,13.9814215 100.767228,12.588464 C100.767228,11.1955066 101.028308,10.1184921 101.550466,9.35742061 C102.072625,8.5963491 102.785883,8.21581335 103.690241,8.21581335 C104.578449,8.21581335 105.248643,8.48541802 105.700821,9.02462735 C105.953826,9.3279326 106.161075,9.77727371 106.322567,10.3726507 L106.322567,10.3726507 L108.80955,10.3726507 C108.771869,9.59753727 108.497332,8.82523223 107.985939,8.05573558 C107.060049,6.68524519 105.595851,6 103.593345,6 C102.096849,6 100.864124,6.51112551 99.8951691,7.53337654 C98.7808715,8.70728019 98.2237227,10.3782674 98.2237227,12.5463383 C98.2237227,14.551523 98.713583,16.1298337 99.6933036,17.2812703 C100.673024,18.4270901 102.018794,19 103.730614,19 Z M115.672978,19 C117.05643,19 118.190914,18.5759343 119.07643,17.727803 C119.961947,16.8796716 120.512367,15.7787859 120.72769,14.4251458 L120.72769,14.4251458 L118.264931,14.4251458 C118.098056,15.0654569 117.888115,15.5456902 117.635111,15.8658458 C117.177549,16.4612227 116.512738,16.7589112 115.640679,16.7589112 C114.790153,16.7589112 114.089006,16.412076 113.537241,15.7184057 C112.985475,15.0247354 112.709592,13.9814215 112.709592,12.588464 C112.709592,11.1955066 112.970671,10.1184921 113.49283,9.35742061 C114.014989,8.5963491 114.728247,8.21581335 115.632605,8.21581335 C116.520813,8.21581335 117.191007,8.48541802 117.643185,9.02462735 C117.89619,9.3279326 118.103439,9.77727371 118.264931,10.3726507 L118.264931,10.3726507 L120.751914,10.3726507 C120.714233,9.59753727 120.439696,8.82523223 119.928303,8.05573558 C119.002413,6.68524519 117.538215,6 115.535709,6 C114.039213,6 112.806488,6.51112551 111.837533,7.53337654 C110.723235,8.70728019 110.166087,10.3782674 110.166087,12.5463383 C110.166087,14.551523 110.655947,16.1298337 111.635668,17.2812703 C112.615388,18.4270901 113.961158,19 115.672978,19 Z M124.902269,18.654569 L124.902269,9.83344135 L129.763191,18.654569 L132.250174,18.654569 L132.250174,6.23590408 L129.932758,6.23590408 L129.932758,14.9053791 L125.192956,6.23590408 L122.584853,6.23590408 L122.584853,18.654569 L124.902269,18.654569 Z M136.327857,18.654569 L137.151469,16.1017498 L141.535988,16.1017498 L142.303077,18.654569 L145,18.654569 L140.785048,6.23590408 L137.97508,6.23590408 L133.72783,18.654569 L136.327857,18.654569 Z M140.84157,13.9617628 L137.821662,13.9617628 L139.35584,9.07517822 L140.84157,13.9617628 Z" id="AKAIBUCCNA" fill="#232525"></path>
                    <g id="XMLID_2705_">
                        <polygon id="XMLID_2708_" fill="url(#linearGradient-1)" points="24 12 12 0 0 12 12 24"></polygon>
                        <polygon id="XMLID_2707_" fill="url(#linearGradient-2)" points="7.8 7.8 12.66 12.66 12.66 2.94"></polygon>
                        <polygon id="XMLID_2706_" fill="url(#linearGradient-3)" points="16.2 16.2 11.34 11.34 11.34 21.06"></polygon>
                    </g>
                </g>
            </g>
        </g>
    </g>
</svg>