<?xml version="1.0" encoding="UTF-8"?>
<svg width="160px" height="36px" viewBox="0 0 160 36" version="1.1" xmlns="http://www.w3.org/2000/svg" xmlns:xlink="http://www.w3.org/1999/xlink">
    <title>Group 2 Copy</title>
    <g id="Page-1" stroke="none" stroke-width="1" fill="none" fill-rule="evenodd">
        <g id="A5" transform="translate(-163.000000, -47.000000)">
            <g id="Group-2-Copy" transform="translate(163.000000, 47.000000)">
                <rect id="Rectangle" fill="#FFFFFF" x="0" y="0" width="160" height="36"></rect>
                <g id="Group" transform="translate(0.000000, 12.000000)" fill="#232525" fill-rule="nonzero">
                    <path d="M2.60002784,12.654569 L3.42363915,10.1017498 L7.80815815,10.1017498 L8.57524711,12.654569 L11.2721704,12.654569 L7.05721843,0.235904083 L4.24725045,0.235904083 L0,12.654569 L2.60002784,12.654569 Z M7.11374078,7.9617628 L4.09383266,7.9617628 L5.62801058,3.07517822 L7.11374078,7.9617628 Z M15.2691076,12.654569 L15.2691076,8.50097213 L16.4560768,7.22877511 L20.1300292,12.654569 L23.327579,12.654569 L18.2001949,5.3499676 L23.0772658,0.235904083 L19.8635668,0.235904083 L15.2691076,5.3499676 L15.2691076,0.235904083 L12.8224976,0.235904083 L12.8224976,12.654569 L15.2691076,12.654569 Z M26.4847557,12.654569 L27.308367,10.1017498 L31.692886,10.1017498 L32.4599749,12.654569 L35.1568982,12.654569 L30.9419463,0.235904083 L28.1319783,0.235904083 L23.8847278,12.654569 L26.4847557,12.654569 Z M30.9984686,7.9617628 L27.9785605,7.9617628 L29.5127384,3.07517822 L30.9984686,7.9617628 Z M38.9438953,12.654569 L38.9438953,0.235904083 L36.4730614,0.235904083 L36.4730614,12.654569 L38.9438953,12.654569 Z M46.6955311,12.654569 C47.3038192,12.654569 47.8676969,12.5984014 48.3871641,12.4860661 C48.9066314,12.3737308 49.3574644,12.1659106 49.7396631,11.8626053 C50.0787972,11.5986174 50.3614089,11.2728451 50.5874983,10.8852884 C50.9427816,10.301145 51.1204232,9.6411752 51.1204232,8.90537913 C51.1204232,8.19205012 50.9656597,7.58543962 50.6561325,7.08554763 C50.3466054,6.58565565 49.8876978,6.220566 49.2794097,5.99027868 C49.6777577,5.77684165 49.9792102,5.54093757 50.1837672,5.28256643 C50.5498167,4.82199179 50.7328414,4.21257291 50.7328414,3.45430979 C50.7328414,2.71851372 50.5498167,2.08662778 50.1837672,1.55865198 C49.5754791,0.699287103 48.5419277,0.258371138 47.0831129,0.235904083 L47.0831129,0.235904083 L41.3016845,0.235904083 L41.3016845,12.654569 L46.6955311,12.654569 Z M46.5986357,5.1309138 L43.675623,5.1309138 L43.675623,2.39274141 L46.2918001,2.39274141 C46.8677897,2.39274141 47.3415008,2.4573342 47.7129333,2.58651977 C48.1435797,2.77187297 48.358903,3.15381292 48.358903,3.7323396 C48.358903,4.25469864 48.1960648,4.6183841 47.8703884,4.82339598 C47.5447121,5.02840786 47.1207945,5.1309138 46.5986357,5.1309138 L46.5986357,5.1309138 Z M46.5986357,10.4977317 L43.675623,10.4977317 L43.675623,7.18664938 L46.6390088,7.18664938 C47.1557845,7.19226615 47.556824,7.2624757 47.8421272,7.39727803 C48.3535199,7.63879888 48.6092162,8.08252322 48.6092162,8.72845107 C48.6092162,9.49233096 48.3454453,10.0090732 47.8179034,10.2786779 C47.527217,10.4247138 47.1207945,10.4977317 46.5986357,10.4977317 L46.5986357,10.4977317 Z M57.9919254,12.9747246 C60.0536452,12.9747246 61.4505546,12.3007129 62.1826535,10.9526896 C62.5756184,10.2168935 62.7721008,9.18902571 62.7721008,7.8690862 L62.7721008,7.8690862 L62.7721008,0.235904083 L60.2447445,0.235904083 L60.2447445,7.8690862 C60.2447445,8.72283431 60.1478491,9.3462951 59.9540582,9.73946857 C59.6526057,10.4359473 58.9985614,10.7841866 57.9919254,10.7841866 C56.9799063,10.7841866 56.3231704,10.4359473 56.0217179,9.73946857 C55.827927,9.3462951 55.7310316,8.72283431 55.7310316,7.8690862 L55.7310316,7.8690862 L55.7310316,0.235904083 L53.2036753,0.235904083 L53.2036753,7.8690862 C53.2036753,9.18902571 53.4001578,10.2168935 53.7931227,10.9526896 C54.5306047,12.3007129 55.9302056,12.9747246 57.9919254,12.9747246 Z M74.7306139,13 C76.1140656,13 77.2485498,12.5759343 78.1340665,11.727803 C79.0195833,10.8796716 79.5700032,9.77878591 79.7853265,8.42514582 L79.7853265,8.42514582 L77.3225672,8.42514582 C77.1556917,9.0654569 76.9457515,9.54569021 76.6927468,9.86584576 C76.2351849,10.4612227 75.5703745,10.7589112 74.6983155,10.7589112 C73.8477888,10.7589112 73.1466425,10.412076 72.5948768,9.7184057 C72.043111,9.02473536 71.7672282,7.98142147 71.7672282,6.58846403 C71.7672282,5.19550659 72.0283076,4.11849211 72.5504664,3.35742061 C73.0726252,2.5963491 73.7858833,2.21581335 74.6902408,2.21581335 C75.5784491,2.21581335 76.2486426,2.48541802 76.7008214,3.02462735 C76.9538262,3.3279326 77.1610748,3.77727371 77.3225672,4.37265068 L77.3225672,4.37265068 L79.8095503,4.37265068 C79.7718688,3.59753727 79.4973317,2.82523223 78.985939,2.05573558 C78.0600492,0.685245193 76.5958513,0 74.5933454,0 C73.096849,0 71.8641236,0.511125513 70.8951691,1.53337654 C69.7808715,2.70728019 69.2237227,4.37826744 69.2237227,6.5463383 C69.2237227,8.55152301 69.713583,10.1298337 70.6933036,11.2812703 C71.6730243,12.4270901 73.0187944,13 74.7306139,13 Z M86.6729779,13 C88.0564295,13 89.1909137,12.5759343 90.0764305,11.727803 C90.9619472,10.8796716 91.5123672,9.77878591 91.7276904,8.42514582 L91.7276904,8.42514582 L89.2649311,8.42514582 C89.0980556,9.0654569 88.8881155,9.54569021 88.6351107,9.86584576 C88.1775488,10.4612227 87.5127384,10.7589112 86.6406794,10.7589112 C85.7901527,10.7589112 85.0890065,10.412076 84.5372407,9.7184057 C83.985475,9.02473536 83.7095921,7.98142147 83.7095921,6.58846403 C83.7095921,5.19550659 83.9706715,4.11849211 84.4928303,3.35742061 C85.0149891,2.5963491 85.7282473,2.21581335 86.6326048,2.21581335 C87.520813,2.21581335 88.1910065,2.48541802 88.6431853,3.02462735 C88.8961901,3.3279326 89.1034387,3.77727371 89.2649311,4.37265068 L89.2649311,4.37265068 L91.7519142,4.37265068 C91.7142327,3.59753727 91.4396956,2.82523223 90.9283029,2.05573558 C90.0024131,0.685245193 88.5382152,0 86.5357093,0 C85.039213,0 83.8064875,0.511125513 82.8375331,1.53337654 C81.7232354,2.70728019 81.1660866,4.37826744 81.1660866,6.5463383 C81.1660866,8.55152301 81.6559469,10.1298337 82.6356675,11.2812703 C83.6153882,12.4270901 84.9611583,13 86.6729779,13 Z M95.9022692,12.654569 L95.9022692,3.83344135 L100.763191,12.654569 L103.250174,12.654569 L103.250174,0.235904083 L100.932758,0.235904083 L100.932758,8.90537913 L96.1929556,0.235904083 L93.5848531,0.235904083 L93.5848531,12.654569 L95.9022692,12.654569 Z M107.327857,12.654569 L108.151469,10.1017498 L112.535988,10.1017498 L113.303077,12.654569 L116,12.654569 L111.785048,0.235904083 L108.97508,0.235904083 L104.72783,12.654569 L107.327857,12.654569 Z M111.84157,7.9617628 L108.821662,7.9617628 L110.35584,3.07517822 L111.84157,7.9617628 Z" id="AKAIBUCCNA"></path>
                </g>
            </g>
        </g>
    </g>
</svg>